<svg id="Car" enable-background="new 0 0 512 512" height="512" viewBox="0 0 512 512" width="512" xmlns="http://www.w3.org/2000/svg"><g><path d="m512 249.358-64.614-23.077-36.917-66.802c-10.56-19.109-30.683-30.979-52.515-30.979h-86.954v-60h-271v322.5h69.701c6.842 30.021 33.736 52.5 65.799 52.5s58.958-22.479 65.799-52.5h109.402c6.842 30.021 33.736 52.5 65.799 52.5s58.958-22.479 65.799-52.5h69.701zm-376.5 164.142c-20.678 0-37.5-16.822-37.5-37.5s16.822-37.5 37.5-37.5 37.5 16.822 37.5 37.5-16.822 37.5-37.5 37.5zm0-105c-32.063 0-58.958 22.479-65.799 52.5h-39.701v-262.5h211v262.5h-39.701c-6.841-30.021-33.736-52.5-65.799-52.5zm241 105c-20.678 0-37.5-16.822-37.5-37.5s16.822-37.5 37.5-37.5 37.5 16.822 37.5 37.5-16.822 37.5-37.5 37.5zm105.5-52.5h-39.701c-6.842-30.021-33.736-52.5-65.799-52.5s-58.958 22.479-65.799 52.5h-39.701v-202.5h86.954c10.916 0 20.978 5.935 26.257 15.49l42.403 76.729 55.386 19.781z"/></g></svg>